# xmcd
#
# Track frame offsets:
#	150
#	18733
#	40480
#	65450
#	84413
#	106260
#	123285
#	143590
#	168748
#	193690
#	216153
#	238148
#	263745
#	269048
#	285355
#
# Disc length: 3971 seconds
#
# Revision: 0
# Processed by: cddbd v1.5.2PL0 Copyright (c) Steve Scherf et al.
# Submitted via: EasyCDDAExtractor 16.0.9.1
#
DISCID=e00f810f
DTITLE=Nina Simone - N-039 Nina Simone My Baby Cat
DYEAR=1900
DGENRE=
TTITLE0=Do What You Gotta Do
TTITLE1=Mississippi Goddamn
TTITLE2=See Lime Woman
TTITLE3=Other Woman
TTITLE4=Four Woman
TTITLE5=I Sing Just to Know I'm Alive
TTITLE6=You Must Have Another Lover
TTITLE7=Touching and Caring
TTITLE8=It's Cold Out Here
TTITLE9=Porgy
TTITLE10=Pirate Jenny
TTITLE11=For a While
TTITLE12=You Took My Teeth
TTITLE13=I Need a Little Sugar in My Bowl
TTITLE14=Backlash Blues
EXTD=
EXTT0=
EXTT1=
EXTT2=
EXTT3=
EXTT4=
EXTT5=
EXTT6=
EXTT7=
EXTT8=
EXTT9=
EXTT10=
EXTT11=
EXTT12=
EXTT13=
EXTT14=
PLAYORDER=
